<?xml version="1.0" encoding="UTF-8" standalone="no"?>
<!-- Created with Inkscape (http://www.inkscape.org/) -->

<svg
   xmlns:dc="http://purl.org/dc/elements/1.1/"
   xmlns:cc="http://creativecommons.org/ns#"
   xmlns:rdf="http://www.w3.org/1999/02/22-rdf-syntax-ns#"
   xmlns:svg="http://www.w3.org/2000/svg"
   xmlns="http://www.w3.org/2000/svg"
   xmlns:sodipodi="http://sodipodi.sourceforge.net/DTD/sodipodi-0.dtd"
   xmlns:inkscape="http://www.inkscape.org/namespaces/inkscape"
   width="512"
   height="512"
   id="svg3126"
   version="1.1"
   inkscape:version="0.48.4 r9939"
   sodipodi:docname="logo.svg"
   inkscape:export-filename="/home/swav/Pictures/twitter4jdemo-logo.png"
   inkscape:export-xdpi="90"
   inkscape:export-ydpi="90">
  <defs
     id="defs21" />
  <sodipodi:namedview
     id="base"
     pagecolor="#ffffff"
     bordercolor="#666666"
     borderopacity="1.0"
     inkscape:pageopacity="0.0"
     inkscape:pageshadow="2"
     inkscape:zoom="0.9398184"
     inkscape:cx="193.51342"
     inkscape:cy="264.11793"
     inkscape:document-units="px"
     inkscape:current-layer="layer2"
     showgrid="false"
     inkscape:window-width="1117"
     inkscape:window-height="817"
     inkscape:window-x="341"
     inkscape:window-y="43"
     inkscape:window-maximized="0" />
  <metadata
     id="metadata3131">
    <rdf:RDF>
      <cc:Work
         rdf:about="">
        <dc:format>image/svg+xml</dc:format>
        <dc:type
           rdf:resource="http://purl.org/dc/dcmitype/StillImage" />
        <dc:title />
      </cc:Work>
    </rdf:RDF>
  </metadata>
  <g
     inkscape:label="Layer 1"
     inkscape:groupmode="layer"
     id="layer1"
     transform="translate(0,-540.36218)" />
  <g
     inkscape:groupmode="layer"
     id="layer2"
     inkscape:label="Layer"
     style="display:inline">
    <path
       sodipodi:type="arc"
       style="fill:#0396ff;fill-opacity:1;fill-rule:nonzero;stroke:none"
       id="path3407"
       sodipodi:cx="251.30624"
       sodipodi:cy="252.80965"
       sodipodi:rx="247.36418"
       sodipodi:ry="251.30624"
       d="m 498.67043,252.80965 a 247.36418,251.30624 0 1 1 -494.7283676,0 247.36418,251.30624 0 1 1 494.7283676,0 z"
       transform="matrix(0.97194216,0,0,0.95246199,11.814995,17.580439)" />
    <g
       style="font-size:162.76966858000000116px;font-style:normal;font-variant:normal;font-weight:bold;font-stretch:normal;text-align:start;line-height:125%;letter-spacing:0px;word-spacing:0px;writing-mode:lr-tb;text-anchor:start;fill:#ffffff;fill-opacity:1;stroke:#ffffff;display:inline;font-family:VAG Rounded Std;-inkscape-font-specification:VAG Rounded Std Bold;stroke-opacity:1;opacity:1;stroke-width:0.1;stroke-miterlimit:4;stroke-dasharray:none"
       id="text3173">
      <path
         id="path3006"
         style="stroke:#ffffff;stroke-opacity:1;stroke-width:0.1;stroke-miterlimit:4;stroke-dasharray:none"
         d="m 118.19723,255.46827 c 0,11.39386 -5.53418,24.41545 -18.392968,24.41545 -12.207713,0 -18.230203,-12.69605 -18.230203,-23.60161 0,-11.06832 6.02249,-23.92714 18.230203,-23.92714 12.533248,0 18.392968,11.71943 18.392968,23.1133 m 23.43884,-68.36326 c 0,-7.81294 -4.8831,-13.02158 -11.71942,-13.02158 -6.83632,0 -11.71942,5.20864 -11.71942,13.02158 l 0,31.90285 c -6.18524,-5.37139 -14.16097,-8.13848 -22.29944,-8.13848 -25.229274,0 -37.762563,23.60162 -37.762563,46.38935 0,22.13666 14.974833,44.11058 38.576411,44.11058 7.975702,0 17.090822,-3.58094 21.485592,-10.7428 1.46493,6.18525 5.20864,9.76618 11.71942,9.76618 6.83632,0 11.71942,-5.20863 11.71942,-13.02157 l 0,-100.26611 m 31.77569,61.20139 c 1.13938,-9.92894 8.13849,-17.90466 18.55574,-17.90466 10.90555,0 17.41635,7.65018 18.71851,17.90466 l -37.27425,0 m 50.45859,15.62589 c 7.16186,0 10.25449,-3.41817 10.25449,-10.41726 0,-19.53234 -16.7653,-42.64565 -42.15734,-42.64565 -24.74097,0 -41.99458,21.64839 -41.99458,45.41273 0,25.88036 17.57915,45.0872 43.94781,45.0872 17.41634,0 38.25088,-9.76619 38.25088,-19.8579 0,-5.04585 -4.55756,-10.09172 -9.60341,-10.09172 -6.18525,0 -14.48652,9.44064 -26.53146,9.44064 -10.90556,0 -20.50898,-5.37141 -22.13668,-16.92804 l 49.97029,0 m 18.57354,23.43883 c 0,7.81294 4.8831,13.02157 11.71942,13.02157 6.83632,0 11.71941,-5.20863 11.71941,-13.02157 l 0,-40.85519 c 0,-9.44063 4.23203,-16.11419 13.83543,-16.11419 8.46401,0 13.67265,6.67356 13.67265,16.11419 l 0,40.85519 c 0,7.81294 4.8831,13.02157 11.71941,13.02157 6.83632,0 11.71942,-5.20863 11.71942,-13.02157 l 0,-40.85519 c 0,-9.44063 5.20864,-16.11419 13.83542,-16.11419 8.46402,0 13.67266,6.67356 13.67266,16.11419 l 0,40.85519 c 0,7.81294 4.88309,13.02157 11.71941,13.02157 6.83632,0 11.71942,-5.20863 11.71942,-13.02157 l 0,-44.92443 c 0,-20.50896 -13.0216,-31.57731 -32.06563,-31.57731 -7.9757,0 -18.23021,4.39479 -24.74099,11.88218 -6.18524,-7.81293 -14.48651,-11.88218 -24.25268,-11.88218 -8.62678,0 -16.1142,3.58094 -21.81113,9.76618 -0.81385,-5.53417 -4.72033,-8.78957 -10.7428,-8.78957 -6.83632,0 -11.71942,5.20864 -11.71942,13.02158 l 0,62.50355 m 177.18497,-55.01615 c 12.85879,0 18.55574,12.69605 18.55574,23.92714 0,11.2311 -5.85972,23.60161 -18.55574,23.60161 -12.69603,0 -18.55575,-12.37051 -18.55575,-23.60161 0,-11.23109 5.69695,-23.92714 18.55575,-23.92714 m 0,-21.48559 c -24.74097,0 -41.99458,21.64839 -41.99458,45.41273 0,24.41543 16.7653,45.0872 41.99458,45.0872 25.22927,0 41.99457,-20.67177 41.99457,-45.0872 0,-23.76434 -17.25361,-45.41273 -41.99457,-45.41273" />
    </g>
    <path
       inkscape:connector-curvature="0"
       style="fill:#00528d;fill-opacity:1;stroke:none;display:inline"
       d="M 256,0 C 114.61477,0 0,114.61476 0,255.99999 0,397.38522 114.61477,512 256,512 397.38523,512 512,397.38522 512,255.99999 512,114.61476 397.38523,0 256,0 z m 0,26.05087 c 127.00215,0 229.94912,102.94696 229.94912,229.94912 0,127.00216 -102.94697,229.94913 -229.94912,229.94913 -127.00215,0 -229.949119,-102.94697 -229.949119,-229.94913 C 26.050881,128.99783 128.99785,26.05087 256,26.05087 z"
       id="path2985-6" />
    <g
       style="font-size:90px;font-style:normal;font-variant:normal;font-weight:bold;font-stretch:normal;text-align:start;line-height:125%;letter-spacing:0px;word-spacing:0px;writing-mode:lr-tb;text-anchor:start;fill:#ffffff;fill-opacity:1;stroke:#ffffff;display:inline;font-family:VAG Rounded Std;-inkscape-font-specification:VAG Rounded Std Bold;stroke-opacity:1;opacity:1;stroke-width:0.1;stroke-miterlimit:4;stroke-dasharray:none"
       id="text3173-1">
      <path
         d="m 109.32108,379.78193 c 0,4.31999 2.7,7.2 6.48,7.2 3.78,0 6.48,-2.88001 6.48,-7.2 l 0,-29.88 3.69,0 c 3.33,0 6.21,-1.62001 6.21,-5.67 0,-4.14 -2.88,-5.67 -6.21,-5.67 l -3.69,0 0,-7.74 c 0,-4.32 -2.7,-7.2 -6.48,-7.2 -3.78,0 -6.48,2.88 -6.48,7.2 l 0,7.74 -2.88,0 c -3.24,0 -5.67,2.43 -5.67,5.67 0,3.50999 2.16,5.67 5.67,5.67 l 2.88,0 0,29.88"
         style="stroke:#ffffff;stroke-opacity:1;stroke-width:0.1;stroke-miterlimit:4;stroke-dasharray:none"
         id="path3025" />
      <path
         d="m 142.15983,380.41193 c 1.35,3.77999 3.6,6.57 7.83,6.57 3.96,0 6.3,-2.25001 7.47,-6.03 l 6.66,-20.88 0.18,0 6.66,20.88 c 1.17,3.77999 3.51,6.03 7.47,6.03 4.22999,0 6.48,-2.79001 7.83,-6.57 l 11.07,-31.23 c 0.63,-1.98 1.26,-3.42001 1.26,-4.86 0,-3.96 -2.7,-6.3 -6.48,-6.3 -3.15,0 -5.4,2.07 -6.12,5.13 l -7.47,24.75 -0.18,0 -7.56,-24.21 c -0.99,-3.51 -2.79,-5.67 -6.57,-5.67 -3.78,0 -5.58,2.16 -6.57,5.67 l -7.56,24.21 -0.18,0 -7.47,-24.75 c -0.72,-3.06 -2.97,-5.13 -6.12,-5.13 -3.78,0 -6.48,2.34 -6.48,5.22 0,1.88999 0.45,3.51 1.35,6.12 l 10.98,31.05"
         style="stroke:#ffffff;stroke-opacity:1;stroke-width:0.1;stroke-miterlimit:4;stroke-dasharray:none"
         id="path3027" />
      <path
         d="m 202.67077,379.78193 c 0,4.31999 2.7,7.2 6.48,7.2 3.77999,0 6.48,-2.88001 6.48,-7.2 l 0,-34.56 c 0,-4.32 -2.70001,-7.2 -6.48,-7.2 -3.78,0 -6.48,2.88 -6.48,7.2 l 0,34.56 m 6.48,-61.2 c -3.87,0 -7.29,3.42 -7.29,7.11 0,3.95999 3.42,7.47 7.29,7.47 4.04999,0 7.29,-3.42001 7.29,-7.47 0,-3.78 -3.42001,-7.11 -7.29,-7.11"
         style="stroke:#ffffff;stroke-opacity:1;stroke-width:0.1;stroke-miterlimit:4;stroke-dasharray:none"
         id="path3029" />
      <path
         d="m 226.03983,379.78193 c 0,4.31999 2.7,7.2 6.48,7.2 3.78,0 6.48,-2.88001 6.48,-7.2 l 0,-29.88 3.69,0 c 3.33,0 6.21,-1.62001 6.21,-5.67 0,-4.14 -2.88,-5.67 -6.21,-5.67 l -3.69,0 0,-7.74 c 0,-4.32 -2.7,-7.2 -6.48,-7.2 -3.78,0 -6.48,2.88 -6.48,7.2 l 0,7.74 -2.88,0 c -3.24,0 -5.67,2.43 -5.67,5.67 0,3.50999 2.16,5.67 5.67,5.67 l 2.88,0 0,29.88"
         style="stroke:#ffffff;stroke-opacity:1;stroke-width:0.1;stroke-miterlimit:4;stroke-dasharray:none"
         id="path3031" />
      <path
         d="m 252.75858,379.78193 c 0,4.31999 2.7,7.2 6.48,7.2 3.78,0 6.48,-2.88001 6.48,-7.2 l 0,-29.88 3.69,0 c 3.33,0 6.21,-1.62001 6.21,-5.67 0,-4.14 -2.88,-5.67 -6.21,-5.67 l -3.69,0 0,-7.74 c 0,-4.32 -2.7,-7.2 -6.48,-7.2 -3.78,0 -6.48,2.88 -6.48,7.2 l 0,7.74 -2.88,0 c -3.24,0 -5.67,2.43 -5.67,5.67 0,3.50999 2.16,5.67 5.67,5.67 l 2.88,0 0,29.88"
         style="stroke:#ffffff;stroke-opacity:1;stroke-width:0.1;stroke-miterlimit:4;stroke-dasharray:none"
         id="path3033" />
      <path
         d="m 314.39733,366.82193 c 3.96,0 5.67,-1.89001 5.67,-5.76 0,-10.79999 -9.27001,-23.58 -23.31,-23.58 -13.67999,0 -23.22,11.97001 -23.22,25.11 0,14.30998 9.72001,24.93 24.3,24.93 9.62999,0 21.15,-5.40001 21.15,-10.98 0,-2.79 -2.52,-5.58 -5.31,-5.58 -3.42,0 -8.01001,5.22 -14.67,5.22 -6.02999,0 -11.34,-2.97001 -12.24,-9.36 l 27.63,0 m -27.9,-8.64 c 0.63,-5.49 4.5,-9.9 10.26,-9.9 6.02999,0 9.63,4.23 10.35,9.9 l -20.61,0"
         style="stroke:#ffffff;stroke-opacity:1;stroke-width:0.1;stroke-miterlimit:4;stroke-dasharray:none"
         id="path3035" />
      <path
         d="m 324.48717,379.78193 c 0,4.31999 2.70001,7.2 6.48,7.2 3.78,0 6.48,-2.88001 6.48,-7.2 l 0,-19.89 c 0,-5.13 3.96001,-6.84001 7.83,-8.64 3.87,-1.8 7.74,-2.07001 7.74,-6.3 0,-4.68 -3.15,-6.93 -6.3,-6.93 -4.04999,0 -6.66,1.8 -9.09,5.4 l -0.18,0 c 0,-4.14 -2.88,-5.4 -6.3,-5.4 -3.23999,0 -6.66,2.16 -6.66,6.48 l 0,35.28"
         style="stroke:#ffffff;stroke-opacity:1;stroke-width:0.1;stroke-miterlimit:4;stroke-dasharray:none"
         id="path3037" />
      <path
         d="m 380.46577,372.31193 0,7.65 c 0,4.76999 1.89,7.02 6.48,7.02 4.58999,0 6.48,-2.25001 6.48,-7.02 l 0,-7.65 1.53,0 c 3.50999,0 6.3,-2.34001 6.3,-5.94 0,-3.6 -2.79001,-5.94 -6.3,-5.94 l -1.53,0 0,-27.63 c 0,-8.19 -5.13001,-11.52 -10.35,-11.52 -4.68,0 -7.20001,1.62 -9.18,5.22 l -20.16,36.54 c -0.54,0.89999 -1.26,1.98 -1.26,3.96 0,2.33999 1.89,5.31 6.3,5.31 l 21.69,0 m 0,-11.88 -12.33,0 12.15,-25.11 0.18,0 0,25.11"
         style="stroke:#ffffff;stroke-opacity:1;stroke-width:0.1;stroke-miterlimit:4;stroke-dasharray:none"
         id="path3039" />
      <path
         d="m 406.22545,398.86193 c 0,4.31999 2.70001,7.2 6.48,7.2 3.78,0 6.48,-2.88001 6.48,-7.2 l 0,-53.64 c 0,-4.32 -2.7,-7.2 -6.48,-7.2 -3.77999,0 -6.48,2.88 -6.48,7.2 l 0,53.64 m 6.48,-80.28 c -3.86999,0 -7.29,3.42 -7.29,7.11 0,3.95999 3.42001,7.47 7.29,7.47 4.05,0 7.29,-3.42001 7.29,-7.47 0,-3.78 -3.42,-7.11 -7.29,-7.11"
         style="stroke:#ffffff;stroke-opacity:1;stroke-width:0.1;stroke-miterlimit:4;stroke-dasharray:none"
         id="path3041" />
    </g>
  </g>
</svg>
